<svg width="552" height="492" viewBox="0 0 552 492" fill="none" xmlns="http://www.w3.org/2000/svg">
<path d="M127.56 1C152.348 1 176.121 10.3337 193.649 26.9477C211.177 43.5617 221.024 66.0952 221.024 89.5909V408.234H34.0488V89.5909C34.0488 66.0952 43.8959 43.5617 61.4239 26.9477C78.9519 10.3337 102.725 1 127.513 1H127.56Z" stroke="#263238" stroke-linecap="round" stroke-linejoin="round"/>
<path d="M55.208 407.277V92.453C55.208 74.2637 62.8303 56.8193 76.3985 43.9566C89.9667 31.0938 108.37 23.8661 127.559 23.8632C146.751 23.8632 165.157 31.0896 178.728 43.9527C192.298 56.8158 199.922 74.2618 199.922 92.453V407.277" stroke="#263238" stroke-linecap="round" stroke-linejoin="round"/>
<path d="M127.56 1V407.761" stroke="#263238" stroke-linecap="round" stroke-linejoin="round"/>
<path d="M35.1064 79.3536H219.771" stroke="#263238" stroke-linecap="round" stroke-linejoin="round"/>
<path d="M35.1064 134.602H219.771" stroke="#263238" stroke-linecap="round" stroke-linejoin="round"/>
<path d="M35.1064 189.85H219.771" stroke="#263238" stroke-linecap="round" stroke-linejoin="round"/>
<path d="M35.1064 245.109H219.771" stroke="#263238" stroke-linecap="round" stroke-linejoin="round"/>
<path d="M35.1064 300.358H219.771" stroke="#263238" stroke-linecap="round" stroke-linejoin="round"/>
<path d="M35.1064 355.606H219.771" stroke="#263238" stroke-linecap="round" stroke-linejoin="round"/>
<path d="M59.7959 28.6517L76.5424 43.1049" stroke="#263238" stroke-linecap="round" stroke-linejoin="round"/>
<path d="M194.627 28.6517L177.881 43.1049" stroke="#263238" stroke-linecap="round" stroke-linejoin="round"/>
<path d="M518.07 14.9799H333.395V253.409H518.07V14.9799Z" stroke="#263238" stroke-linecap="round" stroke-linejoin="round"/>
<path d="M505.562 25.019H345.901V243.359H505.562V25.019Z" stroke="#263238" stroke-linecap="round" stroke-linejoin="round"/>
<path d="M505.563 38.3715C502.95 37.7551 474.95 31.5797 468.621 45.9669C461.989 61.0587 505.783 100.048 481.895 131.498C458.006 162.947 390.323 115.151 379.697 140.304C369.071 165.457 370.406 199.416 351.825 205.712C349.887 206.356 347.899 206.857 345.879 207.21V243.425H505.563V38.3715Z" stroke="#263238" stroke-miterlimit="10"/>
<path d="M385.434 25.019C397.454 31.2934 406.338 40.3529 396.966 52.1973C377.061 77.3612 347.865 92.4529 366.446 106.29C385.027 120.127 434.117 108.822 427.463 69.8098C423.793 48.2455 423.781 34.3866 427.196 25.019H385.434Z" stroke="#263238" stroke-miterlimit="10"/>
<path d="M428.377 207.607C440.876 202.624 446.747 188.982 441.49 177.135C436.234 165.288 421.84 159.723 409.342 164.705C396.843 169.688 390.972 183.331 396.229 195.178C401.485 207.024 415.878 212.589 428.377 207.607Z" stroke="#263238" stroke-miterlimit="10"/>
<path d="M496.492 164.774C496.492 166.64 495.909 168.464 494.815 170.015C493.721 171.567 492.167 172.776 490.348 173.49C488.53 174.204 486.529 174.391 484.598 174.027C482.667 173.663 480.894 172.764 479.502 171.445C478.11 170.126 477.162 168.445 476.778 166.615C476.394 164.785 476.591 162.888 477.345 161.164C478.098 159.44 479.373 157.967 481.01 156.93C482.647 155.894 484.571 155.341 486.54 155.341C489.179 155.341 491.711 156.334 493.577 158.104C495.444 159.873 496.492 162.272 496.492 164.774Z" stroke="#263238" stroke-miterlimit="10"/>
<path d="M399.59 87.4224C399.59 88.9164 399.122 90.3768 398.246 91.6189C397.37 92.8609 396.126 93.8288 394.669 94.4C393.213 94.9712 391.61 95.1201 390.065 94.8279C388.519 94.5356 387.099 93.8153 385.986 92.7581C384.872 91.7009 384.114 90.3544 383.808 88.8889C383.502 87.4233 383.661 85.9046 384.266 84.525C384.871 83.1454 385.894 81.9668 387.205 81.1383C388.517 80.3099 390.058 79.8689 391.635 79.871C392.68 79.871 393.716 80.0664 394.682 80.4461C395.648 80.8257 396.525 81.3821 397.264 82.0835C398.003 82.7848 398.588 83.6173 398.988 84.5335C399.387 85.4496 399.591 86.4313 399.59 87.4224Z" stroke="#263238" stroke-miterlimit="10"/>
<path d="M485.656 425.318C488.149 423.66 490.58 421.928 492.949 420.123C490.193 421.402 487.719 423.165 485.656 425.318Z" fill="#263238"/>
<path d="M508.593 396.896C504.064 394.695 495.969 398.768 492.752 401.795C492.543 401.993 490.499 404.415 489.396 405.769C489.663 404.139 489.942 402.466 490.162 400.859C490.79 396.082 491.266 391.227 491.765 386.384C491.916 384.898 492.079 383.423 492.253 381.981C492.903 382.212 500.638 384.942 504.447 384.689C507.826 384.457 512.077 383.28 514.028 380.429C514.513 379.773 514.847 379.028 515.008 378.243C515.169 377.457 515.154 376.648 514.963 375.868C514.772 375.088 514.411 374.355 513.901 373.717C513.392 373.078 512.747 372.548 512.007 372.162C507.49 369.96 499.383 374.022 496.167 377.06C495.923 377.291 492.985 380.781 492.276 381.706C492.636 378.403 493.031 375.211 493.554 372.03C494.241 367.732 495.222 363.481 496.492 359.305C496.794 359.415 504.853 362.299 508.755 362.035C512.135 361.814 516.385 360.637 518.337 357.786C518.823 357.13 519.159 356.384 519.321 355.597C519.483 354.81 519.468 354 519.278 353.219C519.087 352.437 518.725 351.703 518.214 351.064C517.704 350.424 517.057 349.894 516.316 349.508C511.798 347.306 503.704 351.379 500.475 354.406C500.266 354.604 498.025 357.268 496.991 358.556L496.736 358.424C498.135 354.248 499.919 350.196 502.066 346.315C503.228 344.169 504.459 342.176 505.701 340.272C507.153 340.955 513.831 344.004 517.315 344.136C520.799 344.268 525.061 343.541 527.337 340.911C527.894 340.309 528.312 339.603 528.563 338.839C528.814 338.075 528.893 337.269 528.794 336.474C528.696 335.679 528.422 334.913 527.991 334.224C527.56 333.536 526.981 332.941 526.292 332.479C522.053 329.815 513.517 333.018 510.033 335.693C509.836 335.847 508.047 337.531 506.77 338.786C507.339 337.927 507.931 337.036 508.488 336.232C510.614 333.194 512.762 330.541 514.678 328.197C515.782 326.876 516.804 325.709 517.779 324.619C519.568 324.619 526.756 324.377 529.903 322.979C533.051 321.581 536.488 319.06 537.231 315.736C537.433 314.958 537.46 314.148 537.31 313.36C537.16 312.572 536.837 311.822 536.362 311.16C535.886 310.498 535.269 309.938 534.551 309.516C533.832 309.094 533.029 308.821 532.191 308.713C527.139 308.195 521.135 314.767 519.289 318.697C519.126 319.038 517.268 324.619 517.361 324.619H517.477C516.513 325.654 515.503 326.765 514.423 327.998C512.449 330.31 510.23 332.919 508.024 335.924C505.617 339.142 503.403 342.487 501.393 345.941C499.131 349.81 497.238 353.862 495.737 358.05C495.73 358.101 495.73 358.153 495.737 358.204C495.737 356.784 495.737 352.843 495.656 352.535C495.075 348.264 491.301 340.349 486.295 339.469C485.459 339.342 484.604 339.384 483.786 339.592C482.969 339.8 482.206 340.169 481.549 340.675C480.891 341.18 480.354 341.812 479.971 342.528C479.588 343.243 479.369 344.028 479.327 344.829C479.037 348.231 481.65 351.621 484.158 353.757C487.015 356.178 494.936 358.512 495.563 358.699C494.147 362.988 493.03 367.36 492.218 371.787C491.73 374.374 491.324 376.983 490.964 379.603C490.964 378.381 490.964 377.291 490.894 377.137C490.302 372.866 486.527 364.952 481.534 364.071C480.697 363.945 479.841 363.987 479.022 364.196C478.204 364.404 477.441 364.774 476.783 365.281C476.126 365.788 475.588 366.42 475.206 367.138C474.824 367.855 474.606 368.64 474.566 369.443C474.275 372.833 476.888 376.224 479.397 378.37C481.905 380.517 488.688 382.663 490.453 383.203C490.325 384.204 490.186 385.217 490.058 386.219C489.442 391.062 488.897 395.884 488.13 400.606C487.875 402.268 487.561 403.908 487.248 405.526C487.248 404.426 487.248 403.534 487.189 403.391C486.609 399.12 482.834 391.205 477.829 390.325C476.992 390.198 476.136 390.241 475.318 390.449C474.499 390.658 473.736 391.028 473.078 391.535C472.421 392.041 471.884 392.674 471.501 393.391C471.119 394.108 470.901 394.894 470.861 395.696C470.571 399.087 473.184 402.477 475.692 404.624C478.201 406.77 484.321 408.708 486.435 409.357C486.063 411.019 485.691 412.659 485.273 414.278C484.948 415.378 484.704 416.424 484.321 417.492C483.938 418.56 483.601 419.616 483.241 420.662C482.474 422.644 481.696 424.702 480.918 426.628C480.57 427.487 480.221 428.302 479.873 429.127L483.845 426.573C484.472 424.889 485.087 423.194 485.726 421.389C486.063 420.288 486.4 419.275 486.737 418.196C487.073 417.118 487.329 415.995 487.642 414.894C488.293 412.285 488.804 409.61 489.303 406.902C491.138 407.541 497.7 409.698 501.091 409.478C502.971 409.358 504.818 408.949 506.561 408.267C508.303 406.517 510.045 404.734 511.636 402.896C511.889 401.718 511.729 400.494 511.18 399.411C510.63 398.327 509.722 397.444 508.593 396.896Z" fill="#263238"/>
<path d="M479.967 425.318C479.911 421.535 478.832 417.828 476.831 414.553C476.845 414.129 476.818 413.706 476.75 413.287C476.644 412.492 476.363 411.728 475.924 411.043C475.486 410.359 474.901 409.769 474.206 409.313C473.511 408.857 472.723 408.545 471.893 408.397C471.063 408.249 470.209 408.269 469.387 408.455C464.474 409.687 461.362 417.866 461.13 422.159C461.13 422.412 461.292 425.186 461.432 426.926C461.176 425.913 460.955 424.933 460.688 423.887C460.166 421.829 459.597 419.782 458.981 417.591L457.959 414.399C457.646 413.298 457.17 412.197 456.798 411.096C455.822 408.576 454.707 406.077 453.535 403.567C455.428 403.138 462.163 401.509 464.869 399.549C467.575 397.59 470.409 394.387 470.386 390.985C470.408 390.185 470.252 389.389 469.929 388.649C469.605 387.91 469.121 387.243 468.507 386.693C467.894 386.142 467.165 385.721 466.368 385.455C465.571 385.189 464.724 385.086 463.882 385.151C458.83 385.668 454.44 393.297 453.523 397.513C453.465 397.777 453.163 400.87 453.035 402.576C452.315 401.079 451.607 399.571 450.817 398.085C448.564 393.77 446.172 389.466 443.733 385.173C442.99 383.852 442.281 382.531 441.55 381.221C442.235 381.067 450.271 379.295 453.302 377.093C455.973 375.211 458.819 371.986 458.819 368.606C458.842 367.806 458.688 367.01 458.366 366.27C458.044 365.53 457.561 364.862 456.948 364.311C456.336 363.759 455.608 363.336 454.812 363.069C454.015 362.802 453.169 362.697 452.327 362.761C447.263 363.289 442.873 370.918 441.956 375.134C441.956 375.453 441.468 379.9 441.422 381.045C439.831 378.139 438.263 375.222 436.858 372.305C434.925 368.375 433.265 364.331 431.887 360.196C432.212 360.13 440.609 358.314 443.71 356.057C446.404 354.109 449.261 350.906 449.238 347.504C449.26 346.703 449.104 345.907 448.781 345.167C448.457 344.427 447.973 343.76 447.36 343.208C446.746 342.657 446.017 342.234 445.221 341.968C444.424 341.701 443.577 341.595 442.734 341.659C437.682 342.187 433.292 349.816 432.375 354.032C432.375 354.307 431.992 357.697 431.876 359.316H431.585C430.315 355.109 429.448 350.802 428.995 346.447C428.717 344.048 428.577 341.747 428.508 339.502C430.11 339.314 437.427 338.401 440.446 336.662C443.466 334.922 446.555 332.104 446.927 328.725C447.041 327.93 446.978 327.121 446.74 326.351C446.503 325.581 446.097 324.867 445.55 324.255C445.002 323.643 444.324 323.148 443.561 322.801C442.798 322.454 441.966 322.263 441.12 322.241C436.033 322.241 430.796 329.363 429.39 333.458C429.309 333.678 428.81 336.023 428.461 337.74C428.461 336.728 428.403 335.682 428.403 334.713C428.403 331.07 428.659 327.723 428.903 324.806C429.054 323.133 429.228 321.614 429.402 320.194C430.865 319.236 436.753 315.306 438.565 312.488C440.377 309.67 441.77 305.785 440.446 302.581C440.163 301.827 439.716 301.138 439.133 300.558C438.551 299.979 437.847 299.522 437.066 299.216C436.285 298.911 435.446 298.765 434.602 298.787C433.757 298.809 432.928 298.999 432.166 299.345C427.648 301.547 426.464 310.188 427.207 314.426C427.277 314.8 428.984 320.425 429.054 320.37L429.146 320.315C428.949 321.68 428.752 323.133 428.566 324.718C428.264 327.679 427.939 331.014 427.846 334.68C427.709 338.619 427.81 342.563 428.148 346.491C428.512 350.896 429.289 355.262 430.47 359.536C430.47 359.591 430.47 359.635 430.47 359.69C429.669 358.501 427.323 355.232 427.114 355.001C424.141 351.753 416.383 347.119 411.703 349.001C410.935 349.334 410.249 349.816 409.69 350.417C409.131 351.018 408.712 351.723 408.46 352.487C408.208 353.252 408.129 354.058 408.228 354.853C408.326 355.648 408.6 356.415 409.032 357.103C410.762 360.086 414.839 361.506 418.253 362.024C422.039 362.552 430.006 360.361 430.645 360.185C431.951 364.507 433.566 368.74 435.476 372.855C436.567 375.255 437.798 377.644 438.96 380.021C438.228 379.02 437.566 378.117 437.462 378.007C434.489 374.705 426.731 370.114 422.051 371.997C421.283 372.33 420.598 372.813 420.041 373.414C419.483 374.016 419.066 374.721 418.815 375.485C418.564 376.25 418.486 377.055 418.585 377.85C418.684 378.645 418.959 379.411 419.391 380.098C421.122 383.081 425.256 384.557 428.612 385.019C431.968 385.481 438.844 383.753 440.644 383.269C441.131 384.182 441.596 385.096 442.072 385.999C444.395 390.402 446.717 394.695 448.843 399.01C449.598 400.529 450.283 402.048 450.968 403.578C450.329 402.686 449.807 401.927 449.679 401.828C446.706 398.525 438.948 393.935 434.268 395.818C433.499 396.151 432.813 396.635 432.254 397.236C431.695 397.838 431.276 398.544 431.025 399.31C430.773 400.075 430.693 400.882 430.792 401.678C430.891 402.474 431.165 403.241 431.597 403.93C433.327 406.902 437.404 408.333 440.818 408.84C444.232 409.346 450.387 407.739 452.536 407.178C453.198 408.763 453.86 410.337 454.417 411.9C454.777 413.001 455.195 413.98 455.497 415.081C455.799 416.182 456.124 417.283 456.438 418.285C456.96 420.343 457.506 422.467 457.971 424.482C458.296 425.891 458.575 427.234 458.877 428.588C458.133 427.058 456.635 424.108 456.484 423.876C454.069 420.233 447.194 414.542 442.211 415.731C441.398 415.949 440.642 416.327 439.994 416.841C439.345 417.354 438.817 417.992 438.446 418.712C438.074 419.431 437.867 420.217 437.838 421.018C437.808 421.819 437.957 422.617 438.275 423.359C439.517 426.551 443.373 428.599 446.613 429.545C450.178 430.58 458.087 429.634 459.074 429.545C459.55 431.747 459.992 433.949 460.363 436.029C460.642 437.504 460.886 438.913 461.118 440.289L463.975 438.682C463.766 437.647 463.557 436.591 463.325 435.501C462.86 433.233 462.303 430.8 461.71 428.324C464.096 427.422 466.423 426.385 468.678 425.219C470.653 427.256 474.973 429.545 477.319 430.723L479.363 429.424C479.653 427.674 479.955 425.55 479.967 425.318Z" fill="#263238"/>
<path d="M415.21 337.509C418.857 339.017 427.787 338.83 427.787 338.83C427.787 338.83 425.871 333.326 425.708 332.952C423.746 329.066 417.579 322.66 412.516 323.309C411.681 323.436 410.885 323.729 410.178 324.168C409.471 324.607 408.87 325.183 408.414 325.857C407.958 326.531 407.657 327.289 407.532 328.081C407.406 328.873 407.458 329.682 407.684 330.453C408.521 333.767 412.098 336.221 415.21 337.509Z" fill="#263238"/>
<path d="M493.588 321.867C492.357 325.07 493.913 328.989 495.76 331.686C497.92 334.856 505.48 339.391 505.492 339.391C505.503 339.391 507.106 333.766 507.164 333.403C507.791 329.143 506.351 320.557 501.776 318.455C501.007 318.128 500.174 317.957 499.331 317.954C498.488 317.951 497.654 318.116 496.882 318.437C496.111 318.759 495.419 319.23 494.852 319.821C494.284 320.412 493.854 321.109 493.588 321.867Z" fill="#263238"/>
<path d="M360.186 75.2808L303.525 76.7008L302.363 95.5352L356.784 104.419C356.784 104.419 356.923 86.806 361.928 75.6991" fill="white"/>
<path d="M360.186 75.2808L303.525 76.7008L302.363 95.5352L356.784 104.419C356.784 104.419 356.923 86.806 361.928 75.6991" stroke="#263238" stroke-miterlimit="10"/>
<path d="M381.009 74.4552C381.249 74.051 381.377 73.5958 381.382 73.132C381.387 72.6681 381.268 72.2107 381.036 71.8021C380.804 71.3936 380.467 71.0471 380.056 70.7951C379.646 70.543 379.174 70.3935 378.686 70.3603C374.772 69.5347 360.511 70.3603 358.34 70.3603C356.168 70.3603 349.362 76.965 348.271 89.2277C347.179 101.49 348.155 108.095 350.768 109.328C353.381 110.561 371.103 108.921 371.103 108.921C371.103 108.921 374.749 93.741 378.071 86.762C380.076 82.942 381.083 78.7213 381.009 74.4552Z" fill="white" stroke="#263238" stroke-miterlimit="10"/>
<path d="M330.433 463.648C334.079 439.111 338.283 408.19 338.098 397.205C337.772 377.974 337.192 374.936 337.192 374.936H182.862L181.317 378.513C179.059 398.025 179.031 417.712 181.236 437.229C183.187 453.433 184.813 469.218 185.881 480.567C205.566 474.799 226.969 468.348 252.019 465.057L252.832 410.909L259.173 406.352L262.123 463.923C269.439 463.252 277.058 462.822 285.036 462.822C302.189 462.789 317.135 463.274 330.433 463.648Z" fill="#263238" stroke="#263238" stroke-miterlimit="10"/>
<path d="M220.279 184.621H305.184L314.893 383.037C314.893 383.037 302.676 387.088 284.512 386.582C266.349 386.076 263.051 380.506 246.049 385.063C229.047 389.62 228.025 393.165 215.703 390.633L203.323 388.101L220.279 184.621Z" fill="white" stroke="#263238" stroke-miterlimit="10"/>
<path d="M263.434 330.519C262.61 332.864 261.948 334.801 261.553 336.177" stroke="#263238" stroke-miterlimit="10" stroke-linecap="round"/>
<path d="M281.808 283.373C281.808 283.373 271.925 307.722 265.816 324.036" stroke="#263238" stroke-miterlimit="10" stroke-linecap="round"/>
<path d="M258.859 307.194L256.664 311.894" stroke="#263238" stroke-miterlimit="10" stroke-linecap="round"/>
<path d="M273.979 274.875L262.877 298.607" stroke="#263238" stroke-miterlimit="10" stroke-linecap="round"/>
<path d="M281.783 201.221L282.84 290.649L282.782 416.589C282.782 416.589 304.848 416.589 318.215 413.287C331.582 409.985 348.166 392.823 348.166 392.823C348.166 392.823 330.083 294.777 329.433 281.237C328.783 267.698 334.078 195.904 334.078 195.904C334.078 195.904 409.949 111.21 414.791 104.429C422.398 93.7629 424.419 85.1438 422.619 80.6306C420.819 76.1174 380.938 72.837 376.63 74.0259C372.321 75.2147 365.911 104 365.911 104C365.911 104 338.55 124.1 328.678 129.428C318.807 134.756 312.791 137.222 300.33 142.142C292.207 145.536 284.689 150.104 278.044 155.682L281.783 201.221Z" fill="#1390ED" stroke="#263238" stroke-miterlimit="10"/>
<path d="M318.946 181.044C318.946 183.62 319.074 186.008 319.225 188.089" stroke="#263238" stroke-miterlimit="10"/>
<path d="M320.537 136.815C320.537 136.815 319.004 158.522 318.923 175.749" stroke="#263238" stroke-miterlimit="10"/>
<path d="M325.683 133.942C325.683 133.942 322.536 153.227 321.839 163.068" stroke="#263238" stroke-miterlimit="10"/>
<path d="M365.911 104C365.911 104 380.521 93.1465 384.04 92.5851" stroke="#263238" stroke-miterlimit="10"/>
<path d="M241.497 198.756L237.293 309.935L230.906 420.343C219.203 417.719 207.718 414.29 196.542 410.084C179.551 403.479 170.354 396.544 170.354 396.544C170.354 396.544 177.112 360.857 181.549 341.164C185.985 321.471 191.792 280.863 191.687 274.302C191.583 267.742 190.665 239.429 187.82 224.25C184.975 209.07 172.096 189.784 172.061 187.737C172.026 185.689 216.761 168.869 224.913 164.763C229.477 162.383 234.419 160.721 239.546 159.843L241.729 160.657L241.497 198.756Z" fill="#1390ED" stroke="#263238" stroke-miterlimit="10"/>
<path d="M240.765 154.867C240.765 154.867 232.636 158.555 230.998 165.941C229.361 173.327 223.798 201.629 223.438 205.735C223.078 209.84 224.774 208.2 228.176 204.502C231.579 200.803 235.365 194.661 237.13 196.301L245.48 204.094H277.51C279.173 203.504 280.646 202.514 281.784 201.221C283.479 199.174 286.429 194.242 288.194 195.883C289.96 197.523 294.454 208.2 295.708 205.735C296.962 203.269 290.842 172.92 288.949 163.475C287.056 154.031 270.089 148.296 240.765 154.867Z" fill="white" stroke="#263238" stroke-miterlimit="10"/>
<path d="M241.788 164.301C241.788 164.301 240.243 201.629 243.832 209.015C247.42 216.401 257.059 223.325 266.094 220.507C275.13 217.689 281.552 212.702 281.831 203.687C282.109 194.672 279.438 163.861 279.438 163.861L241.788 164.301Z" fill="white" stroke="#263238" stroke-miterlimit="10"/>
<path d="M281.831 203.687C282.109 194.661 279.438 163.894 279.438 163.894L241.788 164.301C241.788 164.301 241.23 177.764 241.567 190.114C247.768 189.547 253.738 187.593 258.987 184.412C264.324 181.076 268.976 176.846 272.714 171.93L281.262 207.584C281.601 206.309 281.792 205.002 281.831 203.687Z" fill="#263238" stroke="#263238" stroke-miterlimit="10"/>
<path d="M216.285 104.22C216.285 104.22 213.01 99.6741 209.921 106.499C206.832 113.324 212.987 122.813 215.832 125.091C218.678 127.37 226.284 130.397 226.284 126.985C226.284 123.572 223.172 108.778 220.687 103.472C218.201 98.1661 216.285 104.22 216.285 104.22Z" fill="white" stroke="#263238" stroke-miterlimit="10"/>
<path d="M307.148 105.365C307.148 105.365 310.272 100.808 313.593 107.644C316.915 114.48 311.062 123.946 308.298 126.225C305.534 128.504 297.985 131.542 297.927 128.118C297.869 124.695 300.424 109.911 302.735 104.606C305.046 99.2999 307.148 105.365 307.148 105.365Z" fill="white" stroke="#263238" stroke-miterlimit="10"/>
<path d="M221.754 120.16C221.754 120.16 225.238 140.26 227.839 149.363C230.441 158.467 252.355 179.338 260.357 179.712C268.359 180.086 289.39 167.956 294.373 155.44C299.355 142.924 300.632 122.813 300.621 121.679C300.609 120.545 303.338 93.2236 295.58 83.3606C287.823 73.4976 255.421 75.0166 239.546 82.9863C223.67 90.956 215.065 103.087 221.754 120.16Z" fill="white" stroke="#263238" stroke-miterlimit="10"/>
<path d="M249.255 137.442C249.255 139.853 248.164 141.845 246.724 141.845C245.284 141.845 244.087 139.897 244.053 137.442C244.018 134.987 245.144 133.039 246.584 133.039C248.024 133.039 249.209 135.009 249.255 137.442Z" fill="#263238"/>
<path d="M280.065 137.442C280.065 139.853 278.974 141.845 277.545 141.845C276.117 141.845 274.909 139.897 274.863 137.442C274.816 134.987 275.954 133.039 277.394 133.039C278.834 133.039 280.031 135.009 280.065 137.442Z" fill="#263238"/>
<path d="M251.415 123.187L236.329 130.397" stroke="#263238" stroke-width="3" stroke-miterlimit="10" stroke-linecap="round"/>
<path d="M274.63 123.572L289.576 131.916" stroke="#263238" stroke-width="3" stroke-miterlimit="10" stroke-linecap="round"/>
<path d="M268.254 152.214C268.229 152.859 268.069 153.493 267.782 154.079C267.496 154.664 267.09 155.19 266.588 155.626C266.085 156.061 265.496 156.397 264.855 156.615C264.214 156.832 263.534 156.927 262.854 156.893C261.468 156.951 260.114 156.495 259.077 155.621C258.041 154.748 257.404 153.526 257.303 152.214" stroke="#263238" stroke-miterlimit="10" stroke-linecap="round"/>
<path d="M258.952 166.062C260.095 165.583 261.331 165.335 262.581 165.335C263.831 165.335 265.068 165.583 266.211 166.062" stroke="#263238" stroke-miterlimit="10" stroke-linecap="round"/>
<path d="M238.513 141.57L244.633 142.671" stroke="#263238" stroke-miterlimit="10" stroke-linecap="round"/>
<path d="M286.998 141.57L280.355 143.496" stroke="#263238" stroke-miterlimit="10" stroke-linecap="round"/>
<path d="M242.937 46.5613C242.937 46.5613 222.277 55.6758 215.774 73.8828C209.27 92.0897 218.003 111.056 219.258 115.988C220.512 120.919 221.383 123.572 221.383 123.572C221.383 123.572 227.283 117.121 231.638 114.083C235.993 111.045 244.761 109.537 249.952 108.392C255.143 107.247 273.074 103.087 277.824 98.4852C282.574 93.884 284.118 92.0347 284.118 92.0347C284.118 92.0347 288.044 111.375 293.339 117.066C296.495 120.431 298.757 124.462 299.936 128.823C299.936 128.823 303.42 121.238 306.103 114.414C308.785 107.589 310.667 76.0953 303.234 62.8199C295.801 49.5445 264.387 36.7093 242.937 46.5613Z" fill="#263238" stroke="#263238" stroke-miterlimit="10"/>
<path d="M284.117 92.0897C284.117 92.0897 267.974 108.392 249.277 115.988C230.579 123.583 210.953 143.672 212.683 153.921C214.414 164.169 227.722 167.956 226.12 167.956C224.517 167.956 204.856 164.543 205.007 149.363C205.158 134.184 221.811 125.091 230.556 121.293C239.301 117.496 276.197 97.0212 284.117 92.0897Z" fill="#263238" stroke="#263238" stroke-miterlimit="10"/>
<path d="M287.904 103.472C287.904 103.472 293.409 121.679 296.719 127.689C300.029 133.699 305.859 148.175 301.631 158.412C297.404 168.649 294.222 170.168 294.222 170.168C294.222 170.168 308.472 160.691 308.216 145.136C307.961 129.582 290.482 114.083 287.904 103.472Z" fill="#263238" stroke="#263238" stroke-miterlimit="10"/>
<path d="M285.044 52.3713C285.431 42.0123 275.088 33.2567 261.941 32.815C248.795 32.3733 237.823 40.4129 237.436 50.7718C237.048 61.1308 247.392 69.8864 260.538 70.3281C273.685 70.7698 284.657 62.7303 285.044 52.3713Z" fill="#263238" stroke="#263238" stroke-miterlimit="10"/>
<path d="M275.564 36.2485C275.766 30.1782 269.569 25.0667 261.723 24.8316C253.876 24.5966 247.351 29.3271 247.149 35.3974C246.946 41.4678 253.143 46.5793 260.99 46.8143C268.837 47.0493 275.362 42.3189 275.564 36.2485Z" fill="#263238" stroke="#263238" stroke-miterlimit="10"/>
<path d="M143.247 328.802L144.281 390.754C144.281 390.754 139.113 417.822 141.738 419.881C144.362 421.939 153.154 429.314 154.919 431.362C156.684 433.409 160.156 434.235 162.758 434.664C165.359 435.094 172.687 433.024 171.328 429.336C169.97 425.649 168.309 430.151 166.997 428.918C165.695 427.507 164.51 426.001 163.455 424.416L165.905 415.39C165.905 415.39 166.474 423.998 168.646 424.416C170.817 424.834 171.224 423.183 171.166 419.903C171.108 416.622 170.237 415.797 170.562 409.643C170.887 403.49 168.239 398.977 166.869 395.697C165.499 392.416 162.816 386.263 162.351 384.204C161.887 382.146 176.218 333.337 176.218 333.337C176.218 333.337 166.799 339.061 143.247 328.802Z" fill="white" stroke="#263238" stroke-miterlimit="10"/>
<path d="M172.06 187.682C172.06 187.682 159.669 197.115 157.741 211.481C155.813 225.846 155.29 246.342 153.676 252.914C152.062 259.486 145.547 311.167 145.547 311.167C145.547 311.167 151.702 316.902 156.928 319.368C162.154 321.834 173.814 319.776 175.509 319.368C177.28 318.811 179.004 318.126 180.666 317.321C180.666 317.321 187.785 277.109 188.11 270.141C188.435 263.173 191.222 249.226 191.222 249.226C191.222 249.226 190.944 204.094 172.06 187.682Z" fill="#1390ED" stroke="#263238" stroke-miterlimit="10"/>
<path d="M180.19 266.443C179.238 268.028 178.413 269.426 177.867 270.493" stroke="#263238" stroke-miterlimit="10"/>
<path d="M191.269 249.215C191.269 249.215 186.705 256.051 182.745 262.326" stroke="#263238" stroke-miterlimit="10"/>
<path d="M180.875 258.242L171.828 272.53" stroke="#263238" stroke-miterlimit="10"/>
<path d="M144.096 302.956C144.096 302.956 152.875 310.342 161.144 312.808C169.413 315.273 176.323 314.855 179.342 314.04C182.362 313.226 183.628 311.982 184.115 315.262C184.603 318.543 181.793 330.035 181.793 333.315C181.793 336.595 180.631 338.236 173.663 339.469C166.695 340.701 152.004 338.236 147.626 335.363C143.248 332.49 140.159 328.395 140.53 324.696C140.902 320.997 142.493 312.808 142.853 309.935C143.213 307.062 142.4 303.781 144.096 302.956Z" fill="white" stroke="#263238" stroke-miterlimit="10"/>
<path d="M236.305 242.82C236.201 242.73 236.088 242.649 235.969 242.578C232.903 240.761 217.19 244.614 213.206 244.614C200.281 244.614 194.938 241.312 194.427 245.715C193.917 250.118 192.813 254.631 194.033 256.855C195.252 259.078 199.317 256.855 202.847 257.416C206.378 257.978 213.497 261.819 216.435 261.819C219.373 261.819 226.887 257.416 228.699 257.416C230.51 257.416 234.598 259.078 235.759 257.416C237.583 254.697 238.86 245.143 236.305 242.82Z" fill="white" stroke="#263238" stroke-miterlimit="10"/>
<path d="M217.945 256.051C217.953 256.369 217.893 256.685 217.77 256.981C217.647 257.276 217.462 257.545 217.227 257.772C216.992 257.999 216.712 258.179 216.402 258.301C216.093 258.423 215.76 258.485 215.425 258.484C214.742 258.481 214.087 258.225 213.601 257.77C213.115 257.316 212.836 256.698 212.824 256.051C212.817 255.734 212.878 255.419 213.002 255.125C213.126 254.831 213.311 254.563 213.546 254.337C213.781 254.112 214.061 253.933 214.369 253.811C214.678 253.69 215.009 253.628 215.344 253.629C216.025 253.632 216.678 253.887 217.164 254.339C217.65 254.791 217.93 255.406 217.945 256.051Z" stroke="#263238" stroke-miterlimit="10" stroke-linecap="round"/>
<path d="M326.785 242.82C326.681 242.73 326.568 242.649 326.449 242.578C323.371 240.761 307.67 244.614 303.686 244.614C290.761 244.614 285.419 241.312 284.908 245.715C284.397 250.118 283.293 254.631 284.501 256.855C285.709 259.078 289.797 256.855 293.327 257.416C296.858 257.978 303.977 261.819 306.915 261.819C309.853 261.819 317.367 257.416 319.179 257.416C320.99 257.416 325.078 259.078 326.24 257.416C328.051 254.697 329.34 245.143 326.785 242.82Z" fill="white" stroke="#263238" stroke-miterlimit="10"/>
<path d="M308.89 256.668C308.896 256.984 308.835 257.299 308.711 257.594C308.587 257.888 308.402 258.156 308.168 258.381C307.933 258.607 307.653 258.786 307.344 258.907C307.035 259.029 306.704 259.091 306.37 259.089C305.689 259.087 305.036 258.832 304.55 258.38C304.064 257.927 303.783 257.313 303.768 256.668C303.76 256.35 303.82 256.034 303.943 255.738C304.067 255.443 304.251 255.174 304.486 254.947C304.721 254.72 305.002 254.54 305.311 254.418C305.621 254.296 305.953 254.233 306.288 254.235C306.971 254.238 307.626 254.494 308.112 254.949C308.599 255.403 308.878 256.02 308.89 256.668Z" stroke="#263238" stroke-miterlimit="10" stroke-linecap="round"/>
<path d="M175.905 65.4067H85.6227C84.7275 65.4067 83.841 65.5739 83.0139 65.8986C82.1869 66.2233 81.4354 66.6993 80.8023 67.2993C80.1693 67.8993 79.6672 68.6116 79.3246 69.3956C78.982 70.1795 78.8057 71.0198 78.8057 71.8683V99.3218C78.8057 100.17 78.9821 101.01 79.3248 101.793C79.6675 102.576 80.1699 103.288 80.803 103.887C81.4362 104.486 82.1878 104.961 83.0148 105.285C83.8418 105.608 84.728 105.774 85.6227 105.772H160.157L179.285 119.202L172.711 105.772H175.905C176.8 105.774 177.686 105.608 178.513 105.285C179.34 104.961 180.092 104.486 180.725 103.887C181.358 103.288 181.86 102.576 182.203 101.793C182.546 101.01 182.722 100.17 182.722 99.3218V71.8683C182.722 71.0198 182.546 70.1795 182.203 69.3956C181.861 68.6116 181.358 67.8993 180.725 67.2993C180.092 66.6993 179.341 66.2233 178.514 65.8986C177.687 65.5739 176.8 65.4067 175.905 65.4067Z" fill="#263238" stroke="#263238" stroke-miterlimit="10"/>
<path d="M177.019 63.7776H86.737C85.8423 63.7762 84.9561 63.9419 84.1291 64.2655C83.3021 64.589 82.5505 65.0639 81.9173 65.663C81.2841 66.2622 80.7818 66.9738 80.4391 67.7571C80.0963 68.5404 79.9199 69.3802 79.9199 70.2282V97.6817C79.9199 98.5297 80.0963 99.3694 80.4391 100.153C80.7818 100.936 81.2841 101.648 81.9173 102.247C82.5505 102.846 83.3021 103.321 84.1291 103.644C84.9561 103.968 85.8423 104.134 86.737 104.132H161.272L179.284 119.202L173.826 104.132H177.019C178.824 104.132 180.555 103.453 181.832 102.243C183.108 101.033 183.825 99.3925 183.825 97.6817V70.2282C183.825 69.3811 183.649 68.5423 183.307 67.7596C182.965 66.977 182.463 66.2659 181.832 65.6669C181.2 65.0679 180.449 64.5928 179.624 64.2686C178.798 63.9444 177.913 63.7776 177.019 63.7776Z" fill="white" stroke="#263238" stroke-miterlimit="10"/>
<path d="M95.0991 74.2791V92.6071H92.9971V74.2791H95.0991Z" fill="#263238"/>
<path d="M98.4431 79.1005H97.5605L98.2457 76.7998H97.4443V74.2791H99.5231V76.6127L98.4431 79.1005Z" fill="#263238"/>
<path d="M108.849 92.574H106.782L103.577 77.9997V92.6071H101.695V74.2791H104.715L107.885 88.9085L110.951 74.2791H113.959V92.6071H111.915V77.8676L108.849 92.574Z" fill="#263238"/>
<path d="M128.813 78.6821V79.1775H126.769V78.5721C126.769 76.9209 126.107 75.9632 124.562 75.9632C123.018 75.9632 122.356 76.9209 122.356 78.55C122.356 82.656 128.836 83.0522 128.836 88.2039C128.836 90.9779 127.431 92.7832 124.481 92.7832C121.531 92.7832 120.138 90.9779 120.138 88.2039V87.1031H122.158V88.2589C122.158 89.8991 122.878 90.8678 124.481 90.8678C126.084 90.8678 126.804 89.8991 126.804 88.2589C126.804 84.175 120.347 83.7788 120.347 78.6271C120.347 75.7981 121.717 74.0479 124.62 74.0479C127.524 74.0479 128.813 75.9082 128.813 78.6821Z" fill="#263238"/>
<path d="M130.555 78.7042C130.555 75.9082 132.018 74.1029 134.968 74.1029C137.918 74.1029 139.451 75.9082 139.451 78.7042V88.1819C139.451 90.9559 137.987 92.7832 135.003 92.7832C132.018 92.7832 130.59 90.9559 130.59 88.1819L130.555 78.7042ZM132.68 88.281C132.68 89.9542 133.423 90.9229 135.003 90.9229C136.582 90.9229 137.325 89.9542 137.325 88.281V78.6051C137.325 76.9539 136.617 75.9632 135.003 75.9632C133.388 75.9632 132.68 76.9539 132.68 78.6051V88.281Z" fill="#263238"/>
<path d="M145.769 74.2791C148.8 74.2791 150.065 75.7431 150.065 78.473V79.9591C150.065 81.9735 149.322 83.2614 147.673 83.7348C149.438 84.2301 150.1 85.5841 150.1 87.5545V90.4055C150.036 91.1581 150.167 91.9141 150.484 92.6071H148.3C148.004 91.9091 147.881 91.1558 147.94 90.4055V87.5325C147.94 85.463 146.918 84.8135 145.13 84.8135H143.608V92.6401H141.46V74.2791H145.769ZM145.211 82.9202C146.918 82.9202 147.94 82.3918 147.94 80.4104V78.6492C147.94 77.009 147.313 76.1394 145.71 76.1394H143.608V82.9202H145.211Z" fill="#263238"/>
<path d="M156.638 74.2791C159.681 74.2791 160.947 75.7431 160.947 78.473V79.9591C160.947 81.9735 160.204 83.2614 158.543 83.7348C160.308 84.2301 160.97 85.5841 160.97 87.5545V90.4055C160.909 91.159 161.044 91.9151 161.365 92.6071H159.193C158.891 91.9105 158.768 91.156 158.833 90.4055V87.5325C158.833 85.463 157.811 84.8135 156.011 84.8135H154.548V92.6401H152.388V74.2791H156.638ZM156.092 82.9202C157.8 82.9202 158.821 82.3918 158.821 80.4104V78.6492C158.821 77.009 158.183 76.1394 156.58 76.1394H154.548V82.9202H156.092Z" fill="#263238"/>
<path d="M166.358 86.0354L162.271 74.2791H164.512L167.52 83.2835L170.551 74.2791H172.595L168.484 86.0354V92.6401H166.358V86.0354Z" fill="#263238"/>
</svg>
